<?xml version="1.0"?>
<svg xmlns="http://www.w3.org/2000/svg" height="512px" viewBox="0 0 512 512" width="512px" class=""><g><path d="m456.835938 160.667969h-33.953126l-112.125-112.125c-3.285156-27.304688-26.582031-48.542969-54.757812-48.542969s-51.46875 21.238281-54.753906 48.542969l-112.125 112.125h-33.953125c-30.421875 0-55.167969 24.746093-55.167969 55.167969v241c0 30.417968 24.746094 55.164062 55.167969 55.164062h401.667969c30.417968 0 55.164062-24.746094 55.164062-55.164062v-241c0-30.421876-24.746094-55.167969-55.164062-55.167969zm-248.140626-77.152344c9.660157 16.054687 27.246094 26.820313 47.304688 26.820313s37.648438-10.765626 47.304688-26.820313l77.148437 77.152344h-248.90625zm-81.949218 312.75c-21.046875 0-37.117188-10.605469-37.117188-19.921875 0-4.5 4.179688-11.25 9.160156-11.25 6.585938 0 10.925782 12.375 27.3125 12.375 9.644532 0 17.996094-4.339844 17.996094-13.980469 0-24.101562-51.578125-16.710937-51.578125-54.792969 0-23.9375 20.570313-32.132812 39.046875-32.132812 9.480469 0 30.527344 2.246094 30.527344 12.855469 0 3.695312-2.570312 11.085937-8.355469 11.085937-4.980469 0-8.675781-6.105468-22.171875-6.105468-11.570312 0-18.160156 4.660156-18.160156 12.371093 0 19.925781 51.582031 13.015625 51.582031 54.632813 0 22.976562-16.066406 34.863281-38.242187 34.863281zm120.660156-1.445313c-3.535156 0-6.265625-1.125-7.070312-4.175781l-6.105469-21.371093h-36.796875l-6.101563 21.371093c-.804687 3.050781-3.539062 4.175781-7.070312 4.175781-5.625 0-13.175781-3.535156-13.175781-8.675781 0-.324219.160156-.964843.320312-1.609375l31.011719-101.0625c1.445312-4.820312 7.390625-7.070312 13.332031-7.070312 6.109375 0 12.054688 2.25 13.5 7.070312l31.011719 101.0625c.160156.644532.320312 1.125.320312 1.609375 0 4.976563-7.550781 8.675781-13.175781 8.675781zm84.351562 0h-50.9375c-4.660156 0-9.160156-2.25-9.160156-6.585937v-104.441406c0-4.5 5.148438-6.429688 10.445313-6.429688 5.144531 0 10.441406 1.929688 10.441406 6.429688v92.710937h39.207031c4.175782 0 6.265625 4.5 6.265625 9.15625.003907 4.5-2.085937 9.160156-6.261719 9.160156zm62.980469-67.003906c4.175781 0 6.585938 4.019532 6.585938 8.359375 0 3.691407-2.085938 8.03125-6.585938 8.03125h-24.425781v32.296875h45.472656c4.179688 0 6.589844 4.335938 6.589844 9.316406 0 4.339844-2.089844 9-6.589844 9h-57.203125c-4.660156 0-9.15625-2.25-9.15625-6.585937v-104.28125c0-4.339844 4.496094-6.589844 9.15625-6.589844h57.203125c4.5 0 6.589844 4.660157 6.589844 9 0 4.980469-2.410156 9.320313-6.589844 9.320313h-45.472656v32.132812zm0 0" data-original="#000000" class="active-path" data-old_color="#000000" fill="#A71010"/><path d="m201.773438 352.882812h27.957031l-13.976563-49.328124zm0 0" data-original="#000000" class="active-path" data-old_color="#000000" fill="#A71010"/></g> </svg>
